# xmcd
#
# Track frame offsets:
#	150
#	14167
#	28247
#	41812
#	56210
#	69615
#	84275
#	96907
#	107797
#	119585
#	131982
#	143307
#	152527
#	164592
#	173550
#	185612
#	194847
#	199462
#	206972
#	220945
#	227787
#	241287
#
# Disc length: 3386 seconds
#
# Revision: 1
# Processed by: cddbd v1.4PL0 Copyright (c) Steve Scherf et al.
# Submitted via: audiograbber 1.80
#
DISCID=590d3816
DTITLE=tex owens - cattle call
DYEAR=1900
DGENRE=
TTITLE0=cattle call 1934
TTITLE1=pride of the prairie 1934
TTITLE2=dude ranch praty (part 1) 1934
TTITLE3=dude ranch party (part 2) 1934
TTITLE4=rocking alone in an old rocking chair 1934
TTITLE5=two sweethearts 1934
TTITLE6=by the rushing waterfall 1954
TTITLE7=give me the plains at night 1954
TTITLE8=let me ride the range 1954
TTITLE9=porcupine serenade 1945
TTITLE10=lost indian call 1994
TTITLE11=grandpa and the lovebug 1994
TTITLE12=daddy's old rocking chair 1994
TTITLE13=i'll be happy 1994
TTITLE14=lonesone for you 1994
TTITLE15=red roses bring menories of you 1994
TTITLE16=yesterday's  roses 1994
TTITLE17=lonely for you, oh, so long 1994
TTITLE18=cowboy call 1994
TTITLE19=while i'm nealy home 1994
TTITLE20=don't hide your tears my darling 1994
TTITLE21=cattle call (theme song) 1994
EXTD=
EXTT0=
EXTT1=
EXTT2=
EXTT3=
EXTT4=
EXTT5=
EXTT6=
EXTT7=
EXTT8=
EXTT9=
EXTT10=
EXTT11=
EXTT12=
EXTT13=
EXTT14=
EXTT15=
EXTT16=
EXTT17=
EXTT18=
EXTT19=
EXTT20=
EXTT21=
PLAYORDER=
